<?xml version="1.0" standalone="no"?>
<!DOCTYPE svg PUBLIC "-//W3C//DTD SVG 20010904//EN"
 "http://www.w3.org/TR/2001/REC-SVG-20010904/DTD/svg10.dtd">
<svg version="1.0" xmlns="http://www.w3.org/2000/svg"
 width="194.000000pt" height="194.000000pt" viewBox="0 0 194.000000 194.000000"
 preserveAspectRatio="xMidYMid meet">
<metadata>
Created by potrace 1.11, written by Peter Selinger 2001-2013
</metadata>
<g transform="translate(0.000000,194.000000) scale(0.100000,-0.100000)"
fill="#000000" stroke="none">
<path d="M237 1842 c-57 -2 -77 -6 -74 -15 3 -7 22 -52 42 -102 20 -49 43
-103 50 -120 7 -16 36 -86 63 -155 54 -134 68 -168 88 -215 7 -16 31 -77 54
-135 23 -58 50 -124 61 -147 10 -23 19 -45 19 -48 0 -3 8 -25 19 -48 10 -23
41 -98 69 -167 28 -69 64 -159 82 -200 17 -41 38 -95 47 -120 8 -25 18 -49 22
-55 5 -5 27 -58 50 -116 l42 -106 122 1 c119 1 121 1 134 26 23 45 53 114 53
121 0 3 10 28 22 55 12 27 23 54 24 59 4 16 113 278 124 297 5 10 10 22 10 28
0 5 11 34 25 64 14 30 25 58 25 61 0 4 6 21 14 38 8 18 40 94 71 170 30 75 61
149 67 165 6 15 12 29 13 32 3 8 13 33 72 175 30 72 56 137 58 145 2 8 12 35
23 60 40 90 55 125 57 135 2 6 12 34 24 63 11 28 17 52 13 53 -4 0 -59 1 -123
2 l-116 2 -51 -130 c-68 -171 -75 -189 -77 -195 -5 -15 -18 -47 -26 -65 -4
-11 -24 -63 -44 -115 -20 -52 -40 -104 -45 -115 -5 -11 -45 -112 -89 -225 -44
-113 -86 -221 -94 -240 -23 -58 -30 -75 -33 -85 -1 -5 -12 -35 -24 -65 -12
-30 -22 -59 -24 -65 -1 -5 -19 -62 -41 -125 l-38 -115 -14 45 c-8 25 -17 52
-20 60 -3 8 -7 20 -9 25 -7 29 -100 280 -154 415 -34 85 -72 182 -85 215 -13
33 -62 157 -108 275 -47 118 -108 276 -137 350 -29 74 -56 139 -60 143 -9 10
-69 13 -173 9z"/>
</g>
</svg>
